HIERARCHY
ROOT Hips
{
	OFFSET -0.001795 -0.223333 0.028219
	CHANNELS 6 Xposition Yposition Zposition Zrotation Yrotation Xrotation 
	JOINT LeftUpLeg
	{
		OFFSET 0.069520 -0.091406 -0.006815
		CHANNELS 3 Zrotation Yrotation Xrotation
		JOINT LeftLeg
		{
			OFFSET 0.034277 -0.375199 -0.004496
			CHANNELS 3 Zrotation Yrotation Xrotation
			JOINT LeftFoot
			{
				OFFSET -0.013596 -0.397961 -0.043693
				CHANNELS 3 Zrotation Yrotation Xrotation
				JOINT LeftToe
				{
					OFFSET 0.026358 -0.055791 0.119288
					CHANNELS 3 Zrotation Yrotation Xrotation
					End Site
					{
						OFFSET 0.000000 0.000000 0.000000
					}
				}
			}
		}
	}
	JOINT RightUpLeg
	{
		OFFSET -0.067670 -0.090522 -0.004320
		CHANNELS 3 Zrotation Yrotation Xrotation
		JOINT RightLeg
		{
			OFFSET -0.038290 -0.382569 -0.008850
			CHANNELS 3 Zrotation Yrotation Xrotation
			JOINT RightFoot
			{
				OFFSET 0.015774 -0.398415 -0.042312
				CHANNELS 3 Zrotation Yrotation Xrotation
				JOINT RightToe
				{
					OFFSET -0.025372 -0.048144 0.123348
					CHANNELS 3 Zrotation Yrotation Xrotation
					End Site
					{
						OFFSET 0.000000 0.000000 0.000000
					}
				}
			}
		}
	}
	JOINT Spine
	{
		OFFSET -0.002533 0.108963 -0.026696
		CHANNELS 3 Zrotation Yrotation Xrotation
		JOINT Spine1
		{
			OFFSET 0.005487 0.135180 0.001092
			CHANNELS 3 Zrotation Yrotation Xrotation
			JOINT Spine2
			{
				OFFSET 0.001457 0.052922 0.025425
				CHANNELS 3 Zrotation Yrotation Xrotation
				JOINT Neck
				{
					OFFSET -0.002778 0.213870 -0.042857
					CHANNELS 3 Zrotation Yrotation Xrotation
					JOINT Head
					{
						OFFSET 0.005152 0.064970 0.051349
						CHANNELS 3 Zrotation Yrotation Xrotation
						End Site
						{
							OFFSET 0.000000 0.000000 0.000000
						}
					}
				}
				JOINT LeftShoulder
				{
					OFFSET 0.078845 0.121749 -0.034090
					CHANNELS 3 Zrotation Yrotation Xrotation
					JOINT LeftArm
					{
						OFFSET 0.090977 0.030469 -0.008868
						CHANNELS 3 Zrotation Yrotation Xrotation
						JOINT LeftForeArm
						{
							OFFSET 0.259612 -0.012772 -0.027456
							CHANNELS 3 Zrotation Yrotation Xrotation
							JOINT LeftHand
							{
								OFFSET 0.249234 0.008986 -0.001171
								CHANNELS 3 Zrotation Yrotation Xrotation
								End Site
								{
									OFFSET 0.000000 0.000000 0.000000
								}
							}
						}
					}
				}
				JOINT RightShoulder
				{
					OFFSET -0.081759 0.118833 -0.038615
					CHANNELS 3 Zrotation Yrotation Xrotation
					JOINT RightArm
					{
						OFFSET -0.096012 0.032551 -0.009143
						CHANNELS 3 Zrotation Yrotation Xrotation
						JOINT RightForeArm
						{
							OFFSET -0.253742 -0.013329 -0.021401
							CHANNELS 3 Zrotation Yrotation Xrotation
							JOINT RightHand
							{
								OFFSET -0.255298 0.007772 -0.005559
								CHANNELS 3 Zrotation Yrotation Xrotation
								End Site
								{
									OFFSET 0.000000 0.000000 0.000000
								}
							}
						}
					}
				}
			}
		}
	}
}
MOTION
Frames: 16
Frame Time: 0.050000
0.000000 0.945138 0.000000 -0.036888 -2.976020 4.343334 2.106245 -0.133463 -1.274327 0.175630 0.108533 -3.614933 0.917639 4.529188 7.588665 0.000000 0.000000 0.000000 -4.767891 0.349742 -2.718267 1.045729 -0.080970 0.677614 -3.652062 -11.125079 7.197756 0.000000 0.000000 0.000000 1.031613 0.184026 -4.005220 -2.239433 1.056047 -1.587139 0.184499 2.521016 7.974293 -0.490699 1.088496 -9.171847 0.000000 0.000000 0.000000 -13.787658 0.782440 -1.743114 -28.067588 11.705926 -5.579091 -90.741380 -29.126393 30.834575 0.000000 0.000000 0.000000 12.281320 0.160506 -0.835813 32.813495 -12.082237 -6.094466 83.100153 32.289444 29.125756 0.000000 0.000000 0.000000 
0.000410 0.942958 0.001192 -0.059051 -2.617062 4.614275 2.041869 -0.096139 -0.744224 0.417149 0.121809 -4.452893 0.621246 3.821659 6.954632 0.000000 0.000000 0.000000 -4.368003 0.338101 -2.645350 0.333700 -0.027536 0.140227 -3.760785 -11.236402 6.820739 0.000000 0.000000 0.000000 0.578870 0.174763 -3.950981 -2.867212 1.345172 -1.465828 1.074168 2.502046 7.260340 -1.939818 2.153234 -10.445035 0.000000 0.000000 0.000000 -13.324347 1.512164 -2.054481 -26.725474 11.698841 -5.239224 -93.715139 -27.815728 30.872575 0.000000 0.000000 0.000000 11.055644 -0.466813 -1.039173 33.063634 -13.191676 -6.354381 84.898580 32.203517 29.928119 0.000000 0.000000 0.000000 
0.000652 0.942409 0.002108 0.115326 -1.488275 4.925175 2.206531 -0.099635 -0.693797 0.529952 0.108201 -4.296226 -0.682241 1.034204 5.724846 0.000000 0.000000 0.000000 -4.381743 0.332730 -2.651519 0.616714 -0.069598 -0.217592 -4.387137 -12.476030 6.895605 0.000000 0.000000 0.000000 0.418598 0.208559 -4.794202 -1.516831 0.735230 -2.401890 -0.348166 2.744788 8.598194 -0.955272 1.620685 -10.973910 0.000000 0.000000 0.000000 -13.528737 1.007699 -1.996271 -26.617291 10.958468 -5.110917 -93.502984 -28.295471 30.828885 0.000000 0.000000 0.000000 12.072817 -0.089431 -0.748051 33.358309 -13.627340 -6.633695 82.244208 33.987872 30.810043 0.000000 0.000000 0.000000 
0.000633 0.942379 0.002773 0.387049 -0.776295 5.380988 2.319981 -0.129752 -1.017127 -0.025631 0.159320 -4.617813 -1.521841 -0.144001 6.574133 0.000000 0.000000 0.000000 -4.614873 0.351490 -2.911292 0.850562 -0.092212 -0.168119 -4.658238 -13.017606 7.034862 0.000000 0.000000 0.000000 -0.174900 0.239983 -5.879311 -1.829413 0.875440 -1.774941 -0.022799 1.392526 7.616572 -1.358892 1.726643 -9.755381 0.000000 0.000000 0.000000 -13.590873 1.866862 -2.261848 -25.556633 10.796630 -4.839707 -93.215575 -26.823278 29.443058 0.000000 0.000000 0.000000 11.912002 0.466615 -0.655703 32.794737 -14.151548 -6.533688 84.221769 33.190654 30.577377 0.000000 0.000000 0.000000 
0.000314 0.942838 0.003115 0.485580 -0.568720 5.145105 2.057709 -0.094658 -0.603454 0.280030 0.144041 -4.770885 -1.696767 -0.486884 6.495623 0.000000 0.000000 0.000000 -4.696349 0.289385 -1.913548 0.880441 -0.131052 -1.281512 -4.568190 -12.865688 7.327352 0.000000 0.000000 0.000000 -0.084878 0.235485 -5.758890 -1.720638 0.824942 -1.411984 -0.494696 1.064841 6.986691 -1.688244 1.903223 -9.086515 0.000000 0.000000 0.000000 -13.230472 1.328105 -1.952891 -25.945806 10.774926 -4.898167 -92.851796 -27.258521 29.818982 0.000000 0.000000 0.000000 12.177378 0.493371 -0.698895 32.368263 -13.426572 -6.233998 83.489775 33.004917 29.949173 0.000000 0.000000 0.000000 
-0.000220 0.943272 0.002962 0.510585 -0.391994 5.154176 2.324374 -0.075534 -0.254670 0.161853 0.166768 -5.186002 -1.528882 -0.021428 6.814929 0.000000 0.000000 0.000000 -4.800585 0.261640 -1.421354 0.928421 -0.149435 -1.717421 -4.479610 -12.690702 7.424141 0.000000 0.000000 0.000000 -0.059040 0.242049 -5.925825 -1.875923 0.900028 -1.973996 -0.498470 0.750829 7.635386 -1.810641 1.974299 -9.045856 0.000000 0.000000 0.000000 -13.097033 0.982316 -1.722277 -26.252173 10.318730 -4.923155 -92.416167 -26.765483 29.158880 0.000000 0.000000 0.000000 12.090699 0.805634 -0.565204 32.964160 -13.030513 -6.309724 83.897305 32.643864 29.751222 0.000000 0.000000 0.000000 
-0.000904 0.943488 0.002162 0.404145 -0.469497 5.031048 2.390754 -0.070519 -0.177537 0.285730 0.159141 -5.191582 -1.323632 0.414479 6.960521 0.000000 0.000000 0.000000 -4.575269 0.253766 -1.396997 0.949566 -0.145760 -1.542170 -4.449432 -12.591083 7.174210 0.000000 0.000000 0.000000 -0.041056 0.241880 -5.899816 -1.724790 0.830687 -1.840894 -0.635067 0.648162 7.522798 -1.813533 1.970956 -9.129911 0.000000 0.000000 0.000000 -13.407872 0.754001 -1.631467 -25.962828 10.021755 -4.810449 -91.976201 -26.419930 28.607791 0.000000 0.000000 0.000000 12.742589 1.371631 -0.367555 32.695150 -12.843807 -6.200918 83.213432 32.647876 29.352851 0.000000 0.000000 0.000000 
-0.001611 0.943730 0.001151 0.158131 -0.695421 5.039361 2.441638 -0.075433 -0.243603 0.648855 0.127182 -4.965062 -1.116975 0.715944 6.808263 0.000000 0.000000 0.000000 -4.248637 0.264151 -1.663463 0.851116 -0.125067 -1.182083 -4.319754 -12.202052 6.435690 0.000000 0.000000 0.000000 0.179022 0.246139 -5.828068 -1.761974 0.846572 -1.876410 -0.672444 0.791756 7.245143 -1.464087 1.727778 -9.101480 0.000000 0.000000 0.000000 -13.365461 0.647467 -1.588847 -25.535922 9.654161 -4.645190 -91.973731 -26.220618 28.364701 0.000000 0.000000 0.000000 12.882520 1.533586 -0.298593 32.628190 -12.428376 -6.080227 82.719856 31.849503 28.362292 0.000000 0.000000 0.000000 
-0.002291 0.943651 0.000148 -0.017616 -0.803065 5.039448 2.626211 -0.079351 -0.250537 0.611766 0.125927 -4.874996 -0.958838 0.938652 6.655789 0.000000 0.000000 0.000000 -4.022517 0.280345 -1.985603 0.902543 -0.117313 -0.791368 -4.134049 -11.762553 6.128858 0.000000 0.000000 0.000000 0.187329 0.249878 -5.890419 -1.605886 0.775383 -1.885045 -0.727945 0.654952 7.153730 -1.259900 1.564431 -8.967038 0.000000 0.000000 0.000000 -13.476951 0.897441 -1.691140 -25.063831 9.175902 -4.473033 -92.412464 -25.903484 28.294966 0.000000 0.000000 0.000000 13.162135 1.868140 -0.191338 32.107771 -12.272152 -5.923969 82.357747 30.932602 27.223215 0.000000 0.000000 0.000000 
-0.002892 0.943765 -0.000628 -0.127856 -1.184653 5.081665 2.550261 -0.071796 -0.184510 0.826620 0.113563 -4.926265 -0.720659 1.355979 6.670538 0.000000 0.000000 0.000000 -3.789301 0.281992 -2.039548 0.855707 -0.113677 -0.838569 -3.933210 -11.267954 5.711341 0.000000 0.000000 0.000000 0.107730 0.253867 -5.979849 -1.499289 0.726107 -1.968314 -0.815170 0.819956 7.080875 -0.938963 1.316051 -8.578246 0.000000 0.000000 0.000000 -13.448563 0.949199 -1.710480 -24.354517 9.167236 -4.325861 -92.951670 -25.847218 28.486256 0.000000 0.000000 0.000000 13.722563 2.255016 -0.049105 31.210053 -12.330577 -5.741618 82.212177 30.287232 26.499350 0.000000 0.000000 0.000000 
-0.003395 0.943788 -0.001273 -0.193431 -1.579716 5.119293 2.666231 -0.057770 0.031619 1.007417 0.112231 -5.179128 -0.702677 1.484938 7.005966 0.000000 0.000000 0.000000 -3.861791 0.280500 -1.949031 1.027647 -0.137312 -1.109415 -3.781785 -10.987353 5.808106 0.000000 0.000000 0.000000 0.135540 0.276648 -6.414986 -1.514017 0.730647 -1.964077 -0.761312 0.754618 7.242802 -0.706280 1.137014 -8.640964 0.000000 0.000000 0.000000 -13.293464 1.365468 -1.840028 -23.674980 9.084617 -4.194130 -93.826593 -25.809226 28.970613 0.000000 0.000000 0.000000 13.836424 2.435606 -0.018759 30.605096 -12.215043 -5.588012 82.111549 29.453799 25.537044 0.000000 0.000000 0.000000 
-0.003724 0.943867 -0.001904 -0.360753 -1.689953 5.087491 2.835346 -0.049231 0.198539 1.189625 0.114777 -5.496357 -0.477594 2.055875 7.455689 0.000000 0.000000 0.000000 -3.678047 0.275155 -1.929609 0.989624 -0.136602 -1.204089 -3.768156 -11.018187 6.041822 0.000000 0.000000 0.000000 -0.077175 0.276014 -6.529862 -1.173442 0.575302 -1.858774 -0.867198 0.649732 7.082254 -0.373481 0.875236 -8.374259 0.000000 0.000000 0.000000 -12.939733 1.753200 -1.964742 -22.915971 9.241951 -4.063009 -95.014032 -25.252694 28.960611 0.000000 0.000000 0.000000 13.905941 2.184273 -0.176793 30.022895 -12.169800 -5.441254 81.869857 28.649643 24.599425 0.000000 0.000000 0.000000 
-0.003802 0.944006 -0.002538 -0.515098 -1.727972 5.251661 2.891954 -0.060564 0.064233 1.496083 0.101588 -5.614839 -0.487025 2.117204 7.683162 0.000000 0.000000 0.000000 -3.398678 0.276754 -2.023602 0.738542 -0.126008 -1.567327 -3.807052 -11.204612 6.490051 0.000000 0.000000 0.000000 -0.218917 0.281709 -6.754049 -1.026661 0.507453 -1.768798 -0.597954 0.293184 6.819225 -0.403135 0.867661 -8.408687 0.000000 0.000000 0.000000 -12.562292 1.995094 -1.976364 -22.282372 9.497064 -3.973413 -96.192989 -24.486457 28.819279 0.000000 0.000000 0.000000 13.812214 2.072659 -0.310603 29.386995 -12.411633 -5.322762 81.598356 27.980349 23.672785 0.000000 0.000000 0.000000 
-0.003686 0.944137 -0.003226 -0.586894 -1.719194 5.446184 2.869165 -0.068249 -0.037239 1.636120 0.113708 -6.025704 -0.346871 2.468089 7.955766 0.000000 0.000000 0.000000 -3.179224 0.276192 -2.067211 0.495110 -0.108653 -1.672240 -3.712239 -11.023267 6.558212 0.000000 0.000000 0.000000 -0.511308 0.278986 -6.911430 -0.691585 0.353442 -1.644337 -0.543123 0.138628 6.367283 -0.362210 0.830720 -8.448235 0.000000 0.000000 0.000000 -11.876014 2.433716 -2.091806 -21.824279 9.353933 -3.846399 -97.046400 -23.574449 28.227381 0.000000 0.000000 0.000000 13.626757 1.744705 -0.492379 29.261151 -12.435158 -5.268794 81.624451 27.658633 23.318071 0.000000 0.000000 0.000000 
-0.003439 0.944254 -0.003825 -0.673705 -1.866746 5.632310 2.834005 -0.070219 -0.068349 1.852651 0.111202 -6.216854 -0.325223 2.544904 8.104740 0.000000 0.000000 0.000000 -3.099209 0.294045 -2.309291 0.466107 -0.107329 -1.710029 -3.814210 -11.284511 6.739899 0.000000 0.000000 0.000000 -0.722918 0.275904 -6.964624 -0.462796 0.250528 -1.752195 -0.447458 -0.020939 6.332403 -0.421559 0.862155 -8.577757 0.000000 0.000000 0.000000 -11.637600 2.678749 -2.143410 -21.446921 9.170846 -3.751788 -97.466174 -22.880214 27.711637 0.000000 0.000000 0.000000 13.405038 1.591136 -0.593823 29.377546 -12.257849 -5.243569 81.335493 27.797545 23.237389 0.000000 0.000000 0.000000 
-0.003309 0.944543 -0.004297 -0.752585 -1.695243 5.845321 3.039917 -0.075848 -0.047336 1.809511 0.142049 -6.759725 -0.323967 2.728563 8.582930 0.000000 0.000000 0.000000 -2.881485 0.290530 -2.314743 0.268223 -0.098793 -1.929596 -3.980024 -11.713106 7.184067 0.000000 0.000000 0.000000 -1.080324 0.261550 -6.895721 -0.113298 0.096823 -1.943342 -0.429663 -0.063616 6.026685 -0.405163 0.855739 -8.596468 0.000000 0.000000 0.000000 -11.068628 2.982823 -2.232126 -21.283955 8.926408 -3.671910 -97.641521 -21.802864 26.475711 0.000000 0.000000 0.000000 13.187172 1.028199 -0.838448 29.459446 -12.491412 -5.292522 81.337942 28.126672 23.566940 0.000000 0.000000 0.000000 
